# xmcd
#
# Track frame offsets:
#	150
#	16435
#	32305
#	48620
#	67300
#	84145
#	100254
#	122995
#	141552
#
# Disc length: 2134 seconds
#
# Revision: 1
# Processed by: cddbd v1.4PL0 Copyright (c) Steve Scherf et al.
# Submitted via: EasyCDDAExtractor 5.0.6
#
DISCID=7c085409
DTITLE=Maurício Sahady - Blues Brasileiro
DYEAR=2003
DGENRE=Blues Brasil
TTITLE0=Eu amo o Blues !
TTITLE1=Bum! Bum!
TTITLE2=Sentado na Varanda
TTITLE3=Nosso amor É Eterno
TTITLE4=Quando ouço O Velho Blue
TTITLE5=Sirigata na Barragem
TTITLE6=Amor Perfeito
TTITLE7=Sombra E Água Fresca
TTITLE8=Naquela Noite
EXTD=
EXTT0=
EXTT1=
EXTT2=
EXTT3=
EXTT4=
EXTT5=
EXTT6=
EXTT7=
EXTT8=
PLAYORDER=
